<svg xmlns="http://www.w3.org/2000/svg" width="80" height="80" viewBox="0 0 80 80" version="1.1"><path d="" stroke="none" fill="#080404" fill-rule="evenodd"/><path d="M 25.500 10 C 25.160 10.550, 25.584 11, 26.441 11 C 27.298 11, 28 10.550, 28 10 C 28 9.450, 27.577 9, 27.059 9 C 26.541 9, 25.840 9.450, 25.500 10 M 49.639 9.694 C 48.513 10.820, 48.954 12, 50.500 12 C 51.325 12, 52 11.577, 52 11.059 C 52 9.798, 50.438 8.895, 49.639 9.694 M 53 10 C 53 10.550, 53.675 11, 54.500 11 C 55.325 11, 56 10.550, 56 10 C 56 9.450, 55.325 9, 54.500 9 C 53.675 9, 53 9.450, 53 10 M 22 11 C 22 11.550, 22.450 12, 23 12 C 23.550 12, 24 11.550, 24 11 C 24 10.450, 23.550 10, 23 10 C 22.450 10, 22 10.450, 22 11 M 29.192 11.075 C 29.389 11.666, 29.977 12.150, 30.500 12.150 C 31.023 12.150, 31.611 11.666, 31.808 11.075 C 32.005 10.484, 31.417 10, 30.500 10 C 29.583 10, 28.995 10.484, 29.192 11.075 M 57 11.500 C 57 12.325, 57.450 13, 58 13 C 58.550 13, 59 12.325, 59 11.500 C 59 10.675, 58.550 10, 58 10 C 57.450 10, 57 10.675, 57 11.500 M 46 12 C 46 12.550, 45.473 13, 44.829 13 C 44.185 13, 42.856 13.725, 41.877 14.611 C 40.233 16.099, 39.893 16.061, 37.414 14.111 C 32.701 10.404, 31.007 12.342, 35.502 16.298 L 38.004 18.500 34.752 22.152 C 32.152 25.072, 30.569 25.917, 26.855 26.368 L 22.210 26.933 21.548 23.402 C 20.662 18.682, 18.418 19.471, 18.839 24.354 C 19.128 27.708, 18.869 28.150, 16.033 29.138 C 13.068 30.172, 12.226 32.928, 15.125 32.113 C 20.241 30.675, 20.469 30.784, 22.147 35.494 C 23.648 39.706, 23.656 40.466, 22.239 44.073 C 20.766 47.822, 20.508 47.998, 17.342 47.404 C 13.116 46.612, 12.772 48.676, 16.891 50.112 C 19.066 50.870, 19.656 51.600, 19.274 53.060 C 18.926 54.389, 19.276 55, 20.383 55 C 21.273 55, 22 54.297, 22 53.439 C 22 52.146, 22.817 51.996, 26.750 52.567 C 29.363 52.946, 31.526 53.311, 31.557 53.378 C 31.589 53.445, 33.005 55.307, 34.706 57.516 C 37.732 61.448, 37.759 61.579, 35.988 63.766 C 34.993 64.995, 33.599 66, 32.890 66 C 31.863 66, 31.853 66.253, 32.842 67.242 C 33.634 68.034, 34.339 68.125, 34.792 67.492 C 35.181 66.946, 36.556 65.907, 37.846 65.182 C 39.838 64.062, 40.453 64.100, 41.925 65.432 C 43.798 67.127, 46 67.518, 46 66.155 C 46 65.690, 45.112 64.506, 44.026 63.523 C 41.877 61.579, 41.813 61.751, 47.234 54.901 C 47.931 54.021, 50.603 52.987, 53.174 52.601 C 57.491 51.954, 57.873 52.070, 58.174 54.122 C 58.353 55.344, 59.131 56.551, 59.902 56.806 C 60.985 57.163, 61.162 56.558, 60.679 54.146 C 60.134 51.419, 60.368 50.946, 62.527 50.404 C 66.169 49.490, 65.824 46.660, 62.168 47.463 C 59.580 48.032, 59.199 47.735, 57.732 44 C 56.254 40.236, 56.257 39.564, 57.779 35.457 C 59.074 31.964, 59.925 31, 61.716 31 C 64.445 31, 64.751 29.373, 62.175 28.556 C 60.777 28.112, 60.457 27.248, 60.807 24.861 C 61.150 22.524, 60.919 21.859, 59.882 22.201 C 59.122 22.452, 58.358 23.621, 58.184 24.800 C 57.899 26.738, 57.418 26.890, 53.184 26.382 C 49.440 25.932, 47.834 25.086, 45.182 22.165 L 41.865 18.510 44.932 15.769 C 48.002 13.027, 48.880 11, 47 11 C 46.450 11, 46 11.450, 46 12 M 19 14 C 19 14.550, 19.675 15, 20.500 15 C 21.325 15, 22 14.550, 22 14 C 22 13.450, 21.325 13, 20.500 13 C 19.675 13, 19 13.450, 19 14 M 59 15 C 59 15.550, 59.450 16, 60 16 C 60.550 16, 61 15.550, 61 15 C 61 14.450, 60.550 14, 60 14 C 59.450 14, 59 14.450, 59 15 M 18.500 18 C 18.840 18.550, 19.541 19, 20.059 19 C 20.577 19, 21 18.550, 21 18 C 21 17.450, 20.298 17, 19.441 17 C 18.584 17, 18.160 17.450, 18.500 18 M 59 19 C 59 19.550, 59.450 20, 60 20 C 60.550 20, 61 19.550, 61 19 C 61 18.450, 60.550 18, 60 18 C 59.450 18, 59 18.450, 59 19 M 38.200 22.200 C 36.250 24.150, 36.807 25, 40.035 25 C 42.760 25, 42.961 24.796, 42 23 C 40.768 20.698, 39.887 20.513, 38.200 22.200 M 32.235 30.705 C 31.153 32.242, 29.507 34.992, 28.575 36.815 C 26.911 40.072, 26.933 40.223, 29.806 45.315 L 32.731 50.500 39.768 50.792 L 46.805 51.084 49.995 45.509 L 53.185 39.933 49.798 34.217 L 46.411 28.500 40.306 28.205 C 34.604 27.929, 34.071 28.094, 32.235 30.705 M 23.691 29.750 C 23.456 30.163, 23.767 31.947, 24.382 33.715 L 25.500 36.930 27.667 32.965 L 29.834 29 26.976 29 C 25.404 29, 23.926 29.337, 23.691 29.750 M 50.892 30.750 C 51.421 31.712, 52.493 33.357, 53.275 34.403 C 54.630 36.216, 54.748 36.161, 55.767 33.238 C 57.034 29.604, 56.611 29, 52.798 29 C 50.366 29, 50.076 29.266, 50.892 30.750 M 65.639 30.694 C 64.513 31.820, 64.954 33, 66.500 33 C 67.325 33, 68 32.577, 68 32.059 C 68 30.798, 66.438 29.895, 65.639 30.694 M 10 33 C 10 33.550, 10.450 34, 11 34 C 11.550 34, 12 33.550, 12 33 C 12 32.450, 11.550 32, 11 32 C 10.450 32, 10 32.450, 10 33 M 69 34 C 69 34.550, 69.450 35, 70 35 C 70.550 35, 71 34.550, 71 34 C 71 33.450, 70.550 33, 70 33 C 69.450 33, 69 33.450, 69 34 M 35.571 35.571 C 33.550 37.592, 33.550 42.408, 35.571 44.429 C 36.436 45.293, 38.429 46, 40 46 C 43.644 46, 46 43.644, 46 40 C 46 36.356, 43.644 34, 40 34 C 38.429 34, 36.436 34.707, 35.571 35.571 M 7 36 C 7 36.550, 7.423 37, 7.941 37 C 8.459 37, 9.160 36.550, 9.500 36 C 9.840 35.450, 9.416 35, 8.559 35 C 7.702 35, 7 35.450, 7 36 M 71 37 C 71 37.550, 71.675 38, 72.500 38 C 73.325 38, 74 37.550, 74 37 C 74 36.450, 73.325 36, 72.500 36 C 71.675 36, 71 36.450, 71 37 M 6 39.500 C 6 40.325, 6.450 41, 7 41 C 7.550 41, 8 40.325, 8 39.500 C 8 38.675, 7.550 38, 7 38 C 6.450 38, 6 38.675, 6 39.500 M 71.500 41 C 71.840 41.550, 72.541 42, 73.059 42 C 73.577 42, 74 41.550, 74 41 C 74 40.450, 73.298 40, 72.441 40 C 71.584 40, 71.160 40.450, 71.500 41 M 7.192 43.075 C 7.389 43.666, 7.977 44.150, 8.500 44.150 C 9.022 44.150, 9.611 43.666, 9.808 43.075 C 10.005 42.484, 9.417 42, 8.500 42 C 7.583 42, 6.995 42.484, 7.192 43.075 M 24.307 45.997 C 23.256 48.782, 23.354 49.051, 25.632 49.623 C 28.932 50.451, 29.107 50.056, 27.131 46.244 L 25.443 42.989 24.307 45.997 M 69.192 44.075 C 69.389 44.666, 69.977 45.150, 70.500 45.150 C 71.023 45.150, 71.611 44.666, 71.808 44.075 C 72.005 43.484, 71.417 43, 70.500 43 C 69.583 43, 68.995 43.484, 69.192 44.075 M 52.666 46.386 C 50.533 49.642, 50.569 50, 53.031 50 C 55.442 50, 56.534 47.777, 55.250 45.482 C 54.448 44.049, 54.123 44.163, 52.666 46.386 M 10 46 C 10 46.550, 10.675 47, 11.500 47 C 12.325 47, 13 46.550, 13 46 C 13 45.450, 12.325 45, 11.500 45 C 10.675 45, 10 45.450, 10 46 M 66.469 46.050 C 65.519 47.588, 66.820 48.580, 68.104 47.296 C 68.822 46.578, 68.839 46.019, 68.156 45.597 C 67.596 45.251, 66.837 45.455, 66.469 46.050 M 37.214 56.195 C 39.302 59.340, 40.495 59.419, 42.384 56.537 L 44.046 54 39.901 54 C 35.857 54, 35.792 54.054, 37.214 56.195 M 19 58 C 19 58.550, 19.450 59, 20 59 C 20.550 59, 21 58.550, 21 58 C 21 57.450, 20.550 57, 20 57 C 19.450 57, 19 57.450, 19 58 M 59 59.500 C 59 60.417, 59.484 61.005, 60.075 60.808 C 60.666 60.611, 61.150 60.023, 61.150 59.500 C 61.150 58.977, 60.666 58.389, 60.075 58.192 C 59.484 57.995, 59 58.583, 59 59.500 M 18 62 C 18 62.550, 18.675 63, 19.500 63 C 20.325 63, 21 62.550, 21 62 C 21 61.450, 20.325 61, 19.500 61 C 18.675 61, 18 61.450, 18 62 M 59 63.500 C 59 64.325, 59.450 65, 60 65 C 60.550 65, 61 64.325, 61 63.500 C 61 62.675, 60.550 62, 60 62 C 59.450 62, 59 62.675, 59 63.500 M 19 66 C 19 66.550, 19.675 67, 20.500 67 C 21.325 67, 22 66.550, 22 66 C 22 65.450, 21.325 65, 20.500 65 C 19.675 65, 19 65.450, 19 66 M 58 67.559 C 58 68.416, 58.450 68.840, 59 68.500 C 59.550 68.160, 60 67.459, 60 66.941 C 60 66.423, 59.550 66, 59 66 C 58.450 66, 58 66.702, 58 67.559 M 29.639 67.694 C 28.513 68.820, 28.954 70, 30.500 70 C 31.325 70, 32 69.577, 32 69.059 C 32 67.798, 30.438 66.895, 29.639 67.694 M 47.150 67.950 C 47.370 68.610, 47.876 69.116, 48.275 69.075 C 49.471 68.951, 49.239 67.580, 47.950 67.150 C 47.290 66.930, 46.930 67.290, 47.150 67.950 M 21 69 C 21 69.550, 21.675 70, 22.500 70 C 23.325 70, 24 69.550, 24 69 C 24 68.450, 23.325 68, 22.500 68 C 21.675 68, 21 68.450, 21 69 M 51 69.500 C 51 70.325, 51.450 71, 52 71 C 52.550 71, 53 70.325, 53 69.500 C 53 68.675, 52.550 68, 52 68 C 51.450 68, 51 68.675, 51 69.500 M 55 69.441 C 55 70.298, 55.450 71, 56 71 C 56.550 71, 57 70.577, 57 70.059 C 57 69.541, 56.550 68.840, 56 68.500 C 55.450 68.160, 55 68.584, 55 69.441 M 25 70 C 25 70.550, 25.675 71, 26.500 71 C 27.325 71, 28 70.550, 28 70 C 28 69.450, 27.325 69, 26.500 69 C 25.675 69, 25 69.450, 25 70" stroke="none" fill="#040404" fill-rule="evenodd"/></svg>