<svg xmlns="http://www.w3.org/2000/svg" width="96" height="96" viewBox="0 0 96 96" version="1.1"><path d="M 69 44.500 C 69 44.775, 69.225 45, 69.500 45 C 69.775 45, 70 44.775, 70 44.500 C 70 44.225, 69.775 44, 69.500 44 C 69.225 44, 69 44.225, 69 44.500 M 21 45.500 C 21 45.775, 21.225 46, 21.500 46 C 21.775 46, 22 45.775, 22 45.500 C 22 45.225, 21.775 45, 21.500 45 C 21.225 45, 21 45.225, 21 45.500 M 60 57.500 C 60 57.775, 60.225 58, 60.500 58 C 60.775 58, 61 57.775, 61 57.500 C 61 57.225, 60.775 57, 60.500 57 C 60.225 57, 60 57.225, 60 57.500" stroke="none" fill="#147cc4" fill-rule="evenodd"/><path d="M 0 48.010 L 0 96.019 48.250 95.760 L 96.500 95.500 96.760 47.750 L 97.019 0 48.510 0 L 0 0 0 48.010 M 0.462 48.500 C 0.463 74.900, 0.592 85.556, 0.749 72.181 C 0.907 58.805, 0.907 37.205, 0.749 24.181 C 0.591 11.156, 0.462 22.100, 0.462 48.500 M 65.898 46.283 C 63.762 47.718, 61.976 50.070, 61.088 52.616 C 59.806 56.295, 59.852 57.027, 61.588 60.584 C 63.093 63.666, 64.943 65.258, 70.275 68.061 C 78.744 72.512, 80.415 74.118, 79.517 76.946 C 78.104 81.400, 70.595 81.658, 65.906 77.415 C 64.343 76.001, 63.891 76.005, 61.074 77.462 C 58.485 78.800, 58.134 79.382, 58.971 80.945 C 61.616 85.887, 71.554 89.005, 78.607 87.106 C 84.048 85.641, 87.128 82.143, 87.671 76.812 C 88.316 70.472, 85.621 66.841, 77.071 62.536 C 69.046 58.495, 67.354 56.368, 69.604 53.155 C 71.409 50.578, 73.252 50.445, 76.941 52.624 C 79.493 54.132, 79.880 54.125, 82.326 52.522 C 85.597 50.379, 84.677 48.024, 79.633 45.630 C 74.839 43.355, 69.907 43.589, 65.898 46.283 M 21 48.500 L 21 52 27.500 52 L 34 52 34 69.500 L 34 87 38 87 L 42 87 42 69.500 L 42 52 48 52 L 54 52 54 48.500 L 54 45 37.500 45 L 21 45 21 48.500" stroke="none" fill="#1474c4" fill-rule="evenodd"/></svg>